<?xml version="1.0" standalone="no"?>
<!DOCTYPE svg PUBLIC "-//W3C//DTD SVG 20010904//EN"
 "http://www.w3.org/TR/2001/REC-SVG-20010904/DTD/svg10.dtd">
<svg version="1.0" xmlns="http://www.w3.org/2000/svg"
 width="1000.000000pt" height="1000.000000pt" viewBox="0 0 1000.000000 1000.000000"
 preserveAspectRatio="xMidYMid meet">

<g transform="translate(0.000000,1000.000000) scale(0.100000,-0.100000)"
fill="#000000" stroke="none">
<path d="M3780 8836 c-155 -44 -265 -145 -320 -294 l-25 -67 -3 -1135 c-2
-757 1 -1158 8 -1205 20 -135 98 -251 215 -320 122 -73 37 -69 1348 -66 1133
2 1181 3 1241 21 78 25 172 85 214 137 52 66 91 160 102 248 7 52 10 465 8
1195 -3 1110 -3 1115 -24 1177 -41 119 -115 208 -221 266 -110 59 -59 57
-1333 56 -908 -1 -1175 -4 -1210 -13z m1210 -129 c0 -1 -57 -58 -127 -127
l-128 -125 125 128 c116 118 130 132 130 124z m230 -204 c0 -8 -13 5 -110 105
l-105 107 108 -105 c59 -57 107 -106 107 -107z m-140 -90 l75 -78 -77 75 -78
74 -57 -54 -58 -55 55 58 c30 31 57 57 60 57 3 0 39 -35 80 -77z m181 50 c13
-16 12 -17 -3 -4 -10 7 -18 15 -18 17 0 8 8 3 21 -13z m59 -58 c19 -19 32 -35
29 -35 -3 0 -20 16 -39 35 -19 19 -32 35 -29 35 3 0 20 -16 39 -35z m-1137
-62 c-24 -2 -62 -2 -85 0 -24 2 -5 4 42 4 47 0 66 -2 43 -4z m195 0 c-27 -2
-69 -2 -95 0 -27 2 -5 3 47 3 52 0 74 -1 48 -3z m140 0 c-16 -2 -40 -2 -55 0
-16 2 -3 4 27 4 30 0 43 -2 28 -4z m65 0 c-7 -2 -19 -2 -25 0 -7 3 -2 5 12 5
14 0 19 -2 13 -5z m850 0 c-7 -2 -19 -2 -25 0 -7 3 -2 5 12 5 14 0 19 -2 13
-5z m145 0 c-16 -2 -40 -2 -55 0 -16 2 -3 4 27 4 30 0 43 -2 28 -4z m59 1 c-3
-3 -12 -4 -19 -1 -8 3 -5 6 6 6 11 1 17 -2 13 -5z m71 -1 c-10 -2 -28 -2 -40
0 -13 2 -5 4 17 4 22 1 32 -1 23 -4z m140 0 c-21 -2 -57 -2 -80 0 -24 2 -7 4
37 4 44 0 63 -2 43 -4z m100 0 c-10 -2 -28 -2 -40 0 -13 2 -5 4 17 4 22 1 32
-1 23 -4z m-1805 -170 l-33 -4 -2 -117 -2 -117 -3 109 c-2 61 -1 116 1 123 3
8 19 12 38 11 l33 -1 -32 -4z m142 -173 c-98 -98 -180 -178 -182 -176 -2 1 73
78 167 171 93 93 167 172 164 177 -3 4 3 8 13 8 11 0 -49 -67 -162 -180z m862
174 c-3 -3 -12 -4 -19 -1 -8 3 -5 6 6 6 11 1 17 -2 13 -5z m-155 -264 c-1 -2
-60 54 -130 125 l-127 130 130 -125 c72 -69 129 -127 127 -130z m733 -250 c91
91 165 163 165 160 0 -3 -76 -82 -170 -175 l-170 -170 2 320 3 320 2 -310 3
-309 165 164z m-1135 417 c0 -1 -71 -72 -157 -157 l-158 -155 155 158 c144
146 160 162 160 154z m663 -140 l-144 -142 144 -143 c79 -78 141 -142 138
-142 -3 0 -70 64 -148 142 l-143 143 142 142 c79 79 145 143 149 143 3 0 -59
-64 -138 -143z m-1146 -69 c-2 -13 -4 -3 -4 22 0 25 2 35 4 23 2 -13 2 -33 0
-45z m570 -114 c-3 -3 -12 -4 -19 -1 -8 3 -5 6 6 6 11 1 17 -2 13 -5z m121 -1
c-10 -2 -26 -2 -35 0 -10 3 -2 5 17 5 19 0 27 -2 18 -5z m201 -75 c-3 -2 -72
-68 -154 -148 l-150 -145 145 148 c80 81 149 147 154 147 5 0 7 -1 5 -2z
m1251 -203 c102 -102 183 -185 180 -185 -3 0 -88 83 -190 185 -102 102 -183
185 -180 185 3 0 88 -83 190 -185z m-1690 108 c-133 -7 -278 -7 -273 0 2 4 77
6 166 5 89 -1 137 -3 107 -5z m-434 -55 c4 -6 3 -8 -4 -4 -7 4 -12 -7 -15 -31
l-4 -38 -1 43 c-2 40 9 55 24 30z m1144 -123 c63 -63 112 -115 110 -115 -3 0
-57 52 -120 115 -63 63 -112 115 -110 115 3 0 57 -52 120 -115z m-1070 40 c35
-36 62 -65 59 -65 -2 0 -34 29 -69 65 -35 36 -62 65 -59 65 2 0 34 -29 69 -65z
m360 31 c0 -2 -8 -10 -17 -17 -16 -13 -17 -12 -4 4 13 16 21 21 21 13z m1337
-33 c-3 -10 -5 -4 -5 12 0 17 2 24 5 18 2 -7 2 -21 0 -30z m-1447 -18 c19 -19
32 -35 29 -35 -3 0 -20 16 -39 35 -19 19 -32 35 -29 35 3 0 20 -16 39 -35z
m-343 -272 c-1 -54 -3 -12 -3 92 0 105 2 149 3 98 2 -51 2 -136 0 -190z m1790
185 c-2 -18 -4 -6 -4 27 0 33 2 48 4 33 2 -15 2 -42 0 -60z m194 65 c13 -16
12 -17 -3 -4 -10 7 -18 15 -18 17 0 8 8 3 21 -13z m-2234 -61 c-32 -32 -54
-62 -50 -67 5 -4 2 -5 -5 0 -10 5 1 23 44 66 32 33 61 59 63 59 3 0 -20 -26
-52 -58z m393 -175 l-115 -112 110 112 109 113 -44 47 -45 48 50 -48 50 -47
-115 -113z m860 -135 l135 133 -135 -138 -135 -137 -192 192 c-106 106 -193
195 -193 198 0 4 87 -81 192 -187 l193 -193 135 132z m787 191 c-3 -10 -5 -4
-5 12 0 17 2 24 5 18 2 -7 2 -21 0 -30z m-216 0 c13 -16 12 -17 -3 -4 -10 7
-18 15 -18 17 0 8 8 3 21 -13z m55 -55 l29 -33 -32 29 c-31 28 -38 36 -30 36
2 0 16 -15 33 -32z m161 -45 c-2 -16 -4 -3 -4 27 0 30 2 43 4 28 2 -16 2 -40
0 -55z m-4 -97 c4 4 7 0 7 -9 0 -9 -1 -17 -3 -17 -1 0 -32 30 -67 67 l-65 68
61 -58 c33 -32 63 -54 67 -51z m-1153 -368 l-125 -123 120 123 120 122 -120
123 -120 122 125 -122 125 -123 -125 -122z m958 327 c3 -3 -85 -5 -196 -5
-111 0 -202 3 -202 8 0 8 389 6 398 -3z m-1518 -129 c0 -2 -8 -10 -17 -17 -16
-13 -17 -12 -4 4 13 16 21 21 21 13z m1717 -189 c-2 -23 -3 -1 -3 48 0 50 1
68 3 42 2 -26 2 -67 0 -90z m-1790 -149 c-1 -51 -3 -10 -3 92 0 102 2 143 3
93 2 -51 2 -135 0 -185z m753 27 l-124 -125 249 -3 250 -2 -260 -3 -260 -2
130 130 c71 72 132 130 135 130 2 0 -51 -56 -120 -125z m1037 -32 c-2 -21 -4
-4 -4 37 0 41 2 58 4 38 2 -21 2 -55 0 -75z m-1 -89 c-4 -12 -41 -14 -223 -12
l-218 3 218 2 217 3 1 28 c1 18 3 21 6 9 3 -10 2 -25 -1 -33z m-1523 -11 c-51
-2 -135 -2 -185 0 -51 1 -10 3 92 3 102 0 143 -2 93 -3z m537 -218 c30 -30 52
-55 49 -55 -2 0 -29 25 -59 55 -30 30 -52 55 -49 55 2 0 29 -25 59 -55z m170
-20 c-41 -41 -77 -75 -79 -75 -3 0 28 34 69 75 41 41 77 75 79 75 3 0 -28 -34
-69 -75z m300 72 c0 -1 -84 -85 -187 -187 l-188 -185 185 188 c172 174 190
192 190 184z m-684 -69 l29 -33 -32 29 c-31 28 -38 36 -30 36 2 0 16 -15 33
-32z m84 -83 c19 -19 32 -35 29 -35 -3 0 -20 16 -39 35 -19 19 -32 35 -29 35
3 0 20 -16 39 -35z m76 -77 l29 -33 -32 29 c-31 28 -38 36 -30 36 2 0 16 -15
33 -32z"/>
<path d="M3650 5177 c-151 -36 -267 -138 -305 -272 -23 -76 -16 -198 14 -277
61 -158 245 -262 429 -244 208 21 349 164 368 373 13 136 -42 261 -148 339
-106 78 -240 108 -358 81z m209 -210 c22 -15 53 -46 68 -69 24 -35 28 -52 28
-107 0 -124 -79 -212 -199 -219 -49 -3 -71 0 -103 17 -167 85 -163 320 7 396
54 24 148 16 199 -18z"/>
<path d="M5320 5177 c-151 -36 -267 -138 -305 -272 -23 -76 -16 -198 14 -277
61 -158 245 -262 429 -244 208 21 349 164 368 373 13 136 -42 261 -148 339
-106 78 -240 108 -358 81z m209 -210 c22 -15 53 -46 68 -69 24 -35 28 -52 28
-107 0 -124 -79 -212 -199 -219 -49 -3 -71 0 -103 17 -167 85 -163 320 7 396
54 24 148 16 199 -18z"/>
<path d="M7680 5177 c-151 -36 -267 -138 -305 -272 -23 -76 -16 -198 14 -277
61 -158 245 -262 429 -244 208 21 349 164 368 373 13 136 -42 261 -148 339
-106 78 -240 108 -358 81z m209 -210 c22 -15 53 -46 68 -69 24 -35 28 -52 28
-107 0 -124 -79 -212 -199 -219 -49 -3 -71 0 -103 17 -167 85 -163 320 7 396
54 24 148 16 199 -18z"/>
<path d="M6205 5162 c-170 -59 -274 -217 -263 -402 8 -146 87 -257 226 -323
61 -29 75 -32 167 -32 58 0 116 6 138 13 l37 14 0 111 0 110 -23 -21 c-52 -49
-162 -67 -230 -38 -39 17 -92 71 -106 109 -32 83 0 194 72 251 66 52 188 47
257 -11 l30 -25 0 116 0 115 -52 16 c-69 20 -190 19 -253 -3z"/>
<path d="M6915 5162 c-170 -59 -274 -217 -263 -402 8 -146 87 -257 226 -323
61 -29 75 -32 167 -32 58 0 116 6 138 13 l37 14 0 111 0 110 -23 -21 c-52 -49
-162 -67 -230 -38 -39 17 -92 71 -106 109 -32 83 0 194 72 251 66 52 188 47
257 -11 l30 -25 0 116 0 115 -52 16 c-69 20 -190 19 -253 -3z"/>
<path d="M2415 5138 c-2 -13 -30 -171 -60 -353 -30 -181 -57 -340 -60 -352 -5
-23 -4 -23 89 -23 82 0 95 2 100 18 2 9 17 106 32 214 15 109 30 195 34 193 3
-2 44 -98 90 -214 l84 -211 36 0 37 0 88 211 c49 115 92 212 95 214 4 2 17
-78 29 -178 12 -100 24 -197 28 -214 l5 -33 95 0 95 0 -6 38 c-22 136 -106
696 -106 703 0 5 -44 9 -97 9 l-98 0 -79 -200 c-44 -110 -83 -197 -86 -193 -4
5 -38 89 -75 188 -37 99 -70 186 -72 193 -4 8 -33 12 -99 12 -89 0 -94 -1 -99
-22z"/>
<path d="M4310 4786 l0 -376 95 0 94 0 3 144 3 145 91 -142 90 -142 122 -3
122 -3 -115 150 c-63 82 -115 152 -115 155 0 3 17 13 37 21 80 34 117 96 117
200 0 77 -14 113 -61 157 -53 51 -101 61 -300 66 l-183 4 0 -376z m307 205
c35 -22 49 -64 34 -104 -13 -35 -47 -56 -104 -63 l-47 -7 0 97 0 96 43 0 c24
0 56 -8 74 -19z"/>
<path d="M3665 4106 c-120 -29 -233 -115 -282 -213 -21 -45 -28 -74 -31 -144
-10 -198 88 -349 265 -410 80 -27 222 -26 299 2 l56 21 28 -34 29 -35 78 13
c43 7 85 13 93 13 8 1 -13 29 -49 65 l-63 63 30 54 c93 165 77 356 -38 482
-102 111 -265 160 -415 123z m160 -187 c59 -16 129 -92 144 -156 9 -37 10 -61
2 -89 -19 -67 -26 -72 -58 -43 -28 26 -29 26 -113 16 -47 -5 -87 -12 -89 -14
-3 -2 21 -30 53 -62 l58 -58 -31 -6 c-117 -24 -241 88 -241 215 1 58 30 119
74 154 63 51 125 64 201 43z"/>
<path d="M5906 4095 c-53 -19 -85 -44 -121 -94 -29 -41 -30 -48 -30 -143 l0
-100 36 -32 c19 -18 55 -40 80 -49 24 -9 70 -26 103 -38 96 -35 120 -76 71
-124 -19 -20 -34 -25 -78 -25 -43 0 -64 7 -112 35 -32 20 -59 34 -60 33 -2 -2
-19 -36 -40 -77 l-37 -74 24 -18 c65 -50 224 -80 320 -60 119 25 195 106 205
220 8 82 -3 125 -39 167 -37 42 -79 65 -174 93 -105 31 -133 76 -76 121 33 27
90 23 150 -8 l39 -20 36 74 37 74 -30 15 c-82 43 -229 57 -304 30z"/>
<path d="M4320 3827 c0 -287 7 -338 53 -398 55 -73 184 -116 312 -106 100 9
161 33 211 83 68 68 74 101 74 416 l0 268 -94 0 -94 0 -4 -252 c-3 -234 -5
-256 -24 -288 -11 -19 -31 -41 -45 -47 -33 -17 -94 -16 -130 3 -56 29 -63 62
-67 337 l-4 247 -94 0 -94 0 0 -263z"/>
<path d="M5150 3715 l0 -375 215 0 215 0 0 85 0 85 -120 0 -121 0 3 63 3 62
113 3 112 3 0 79 0 80 -115 0 -115 0 0 65 0 65 120 0 120 0 0 80 0 80 -215 0
-215 0 0 -375z"/>
<path d="M6360 4010 l0 -80 80 0 80 0 0 -295 0 -295 95 0 95 0 0 295 0 295 85
0 85 0 0 80 0 80 -260 0 -260 0 0 -80z"/>
<path d="M4170 2835 l0 -237 118 4 c96 3 125 8 158 25 85 45 118 112 112 228
-3 62 -8 80 -33 116 -49 69 -105 92 -241 97 l-114 5 0 -238z m252 158 c18 -11
43 -37 56 -59 30 -52 28 -167 -4 -211 -33 -46 -98 -73 -176 -73 l-68 0 0 186
0 187 80 -6 c52 -3 91 -12 112 -24z"/>
<path d="M5395 3051 c-53 -24 -111 -90 -126 -143 -17 -63 -6 -149 26 -203 84
-144 324 -140 401 8 l15 27 -38 0 c-31 0 -41 -5 -54 -28 -49 -86 -212 -79
-268 12 -78 125 5 297 141 296 47 -1 116 -35 130 -65 9 -20 18 -25 50 -25 l39
0 -15 28 c-20 38 -65 78 -108 96 -50 21 -143 20 -193 -3z"/>
<path d="M4670 2831 l0 -231 30 0 30 0 2 171 3 171 75 -169 c100 -224 97 -224
194 -8 l71 160 3 -162 2 -163 35 0 35 0 0 231 0 230 -37 -3 -37 -3 -80 -182
c-45 -100 -83 -183 -86 -183 -3 0 -42 82 -87 183 l-82 182 -35 3 -36 3 0 -230z"/>
</g>
</svg>
